<svg xmlns="http://www.w3.org/2000/svg" xmlns:xlink="http://www.w3.org/1999/xlink" width="500" zoomAndPan="magnify" viewBox="0 0 375 374.999991" height="500" preserveAspectRatio="xMidYMid meet" version="1.0"><defs><clipPath id="852c2ef08d"><path d="M 141 160 L 233 160 L 233 252.734375 L 141 252.734375 Z M 141 160 " clip-rule="nonzero"/></clipPath><clipPath id="aef3bcf473"><path d="M 141 115.671875 L 234 115.671875 L 234 208 L 141 208 Z M 141 115.671875 " clip-rule="nonzero"/></clipPath><clipPath id="7dada0deab"><path d="M 164 138 L 256.027344 138 L 256.027344 231 L 164 231 Z M 164 138 " clip-rule="nonzero"/></clipPath></defs><rect x="-37.5" width="450" fill="#ffffff" y="-37.499999" height="449.999989" fill-opacity="1"/><rect x="-37.5" width="450" fill="#ffffff" y="-37.499999" height="449.999989" fill-opacity="1"/><g clip-path="url(#852c2ef08d)"><path fill="#ffffff" d="M 187.589844 252.921875 C 189.082031 252.894531 190.570312 252.800781 192.050781 252.632812 C 193.535156 252.460938 195.007812 252.222656 196.46875 251.910156 C 197.925781 251.597656 199.367188 251.214844 200.792969 250.761719 C 202.214844 250.3125 203.613281 249.792969 204.984375 249.203125 C 206.355469 248.613281 207.695312 247.960938 209.007812 247.242188 C 210.316406 246.523438 211.585938 245.746094 212.816406 244.902344 C 214.050781 244.0625 215.242188 243.160156 216.386719 242.203125 C 217.53125 241.246094 218.628906 240.234375 219.675781 239.171875 C 220.722656 238.105469 221.714844 236.996094 222.652344 235.832031 C 223.59375 234.671875 224.472656 233.46875 225.292969 232.222656 C 226.117188 230.976562 226.875 229.695312 227.574219 228.375 C 228.269531 227.054688 228.902344 225.703125 229.46875 224.320312 C 230.03125 222.9375 230.53125 221.53125 230.960938 220.101562 C 231.386719 218.671875 231.746094 217.226562 232.035156 215.761719 C 232.324219 214.296875 232.539062 212.820312 232.683594 211.335938 C 232.828125 209.847656 232.902344 208.359375 232.902344 206.867188 C 232.902344 205.375 232.828125 203.882812 232.683594 202.398438 C 232.539062 200.914062 232.324219 199.4375 232.035156 197.972656 C 231.746094 196.507812 231.386719 195.058594 230.960938 193.628906 C 230.53125 192.199219 230.03125 190.792969 229.46875 189.414062 C 228.902344 188.03125 228.269531 186.679688 227.574219 185.359375 C 226.875 184.039062 226.117188 182.757812 225.292969 181.511719 C 224.472656 180.265625 223.59375 179.058594 222.652344 177.898438 C 221.714844 176.738281 220.722656 175.625 219.675781 174.5625 C 218.628906 173.496094 217.53125 172.488281 216.386719 171.53125 C 215.242188 170.570312 214.050781 169.671875 212.816406 168.832031 C 211.585938 167.988281 210.316406 167.207031 209.007812 166.488281 C 207.695312 165.769531 206.355469 165.117188 204.984375 164.53125 C 203.613281 163.941406 202.214844 163.421875 200.792969 162.96875 C 199.367188 162.519531 197.925781 162.136719 196.46875 161.824219 C 195.007812 161.511719 193.535156 161.269531 192.050781 161.101562 C 190.570312 160.933594 189.082031 160.835938 187.589844 160.8125 L 186.730469 160.8125 L 186.730469 206.003906 L 141.578125 206.003906 L 141.578125 206.871094 C 141.578125 208.378906 141.652344 209.882812 141.800781 211.382812 C 141.949219 212.882812 142.171875 214.371094 142.464844 215.847656 C 142.761719 217.328125 143.128906 218.789062 143.566406 220.230469 C 144.003906 221.671875 144.511719 223.089844 145.089844 224.480469 C 145.664062 225.871094 146.308594 227.234375 147.019531 228.5625 C 147.730469 229.890625 148.503906 231.183594 149.339844 232.4375 C 150.179688 233.6875 151.074219 234.898438 152.03125 236.0625 C 152.984375 237.226562 153.996094 238.34375 155.0625 239.410156 C 156.125 240.476562 157.242188 241.488281 158.40625 242.445312 C 159.570312 243.402344 160.777344 244.296875 162.03125 245.136719 C 163.285156 245.972656 164.574219 246.75 165.902344 247.460938 C 167.230469 248.171875 168.589844 248.816406 169.984375 249.394531 C 171.375 249.972656 172.792969 250.480469 174.234375 250.921875 C 175.675781 251.359375 177.136719 251.726562 178.613281 252.023438 C 180.089844 252.320312 181.578125 252.542969 183.078125 252.691406 C 184.578125 252.84375 186.082031 252.917969 187.589844 252.921875 Z M 188.445312 207.730469 L 188.445312 162.539062 C 189.886719 162.566406 191.320312 162.660156 192.75 162.828125 C 194.183594 162.996094 195.601562 163.230469 197.007812 163.535156 C 198.417969 163.839844 199.804688 164.210938 201.175781 164.652344 C 202.546875 165.09375 203.894531 165.597656 205.21875 166.171875 C 206.539062 166.742188 207.832031 167.375 209.089844 168.074219 C 210.351562 168.769531 211.574219 169.527344 212.761719 170.34375 C 213.949219 171.160156 215.089844 172.03125 216.191406 172.960938 C 217.292969 173.886719 218.347656 174.867188 219.355469 175.898438 C 220.359375 176.929688 221.3125 178.007812 222.214844 179.128906 C 223.117188 180.253906 223.960938 181.417969 224.746094 182.625 C 225.535156 183.828125 226.261719 185.070312 226.929688 186.347656 C 227.59375 187.625 228.199219 188.929688 228.738281 190.265625 C 229.277344 191.601562 229.75 192.960938 230.15625 194.34375 C 230.5625 195.722656 230.902344 197.121094 231.171875 198.535156 C 231.441406 199.953125 231.644531 201.375 231.777344 202.808594 C 231.90625 204.246094 231.96875 205.679688 231.960938 207.121094 C 231.953125 208.5625 231.875 210 231.726562 211.429688 C 231.578125 212.863281 231.359375 214.285156 231.074219 215.695312 C 230.785156 217.109375 230.429688 218.503906 230.007812 219.878906 C 229.585938 221.257812 229.097656 222.609375 228.542969 223.9375 C 227.988281 225.269531 227.371094 226.566406 226.6875 227.835938 C 226.007812 229.105469 225.265625 230.335938 224.464844 231.535156 C 223.664062 232.730469 222.804688 233.886719 221.890625 235 C 220.976562 236.113281 220.011719 237.179688 218.992188 238.195312 C 217.976562 239.214844 216.910156 240.183594 215.796875 241.097656 C 214.6875 242.011719 213.53125 242.871094 212.335938 243.675781 C 211.140625 244.476562 209.910156 245.21875 208.640625 245.902344 C 207.371094 246.585938 206.074219 247.207031 204.746094 247.761719 C 203.417969 248.316406 202.0625 248.808594 200.6875 249.230469 C 199.3125 249.65625 197.917969 250.011719 196.507812 250.300781 C 195.09375 250.589844 193.671875 250.808594 192.242188 250.957031 C 190.808594 251.109375 189.371094 251.1875 187.933594 251.199219 C 186.492188 251.207031 185.054688 251.148438 183.621094 251.015625 C 182.1875 250.886719 180.761719 250.6875 179.347656 250.417969 C 177.929688 250.148438 176.53125 249.8125 175.152344 249.40625 C 173.769531 249 172.410156 248.53125 171.074219 247.992188 C 169.738281 247.453125 168.429688 246.851562 167.152344 246.1875 C 165.875 245.523438 164.632812 244.796875 163.425781 244.011719 C 162.21875 243.222656 161.054688 242.382812 159.929688 241.480469 C 158.804688 240.582031 157.726562 239.628906 156.695312 238.625 C 155.664062 237.621094 154.683594 236.566406 153.753906 235.464844 C 152.824219 234.367188 151.953125 233.222656 151.132812 232.035156 C 150.316406 230.851562 149.558594 229.628906 148.859375 228.371094 C 148.160156 227.109375 147.523438 225.820312 146.953125 224.496094 C 146.378906 223.175781 145.871094 221.832031 145.429688 220.460938 C 144.988281 219.089844 144.613281 217.699219 144.308594 216.292969 C 144.003906 214.882812 143.765625 213.464844 143.597656 212.035156 C 143.429688 210.605469 143.332031 209.167969 143.304688 207.730469 Z M 188.445312 207.730469 " fill-opacity="1" fill-rule="nonzero"/></g><g clip-path="url(#aef3bcf473)"><path fill="#ffffff" d="M 187.589844 207.765625 L 188.445312 207.765625 L 188.445312 162.574219 L 233.601562 162.574219 L 233.601562 161.71875 C 233.597656 160.210938 233.523438 158.707031 233.375 157.210938 C 233.226562 155.710938 233.003906 154.222656 232.710938 152.742188 C 232.414062 151.265625 232.046875 149.808594 231.609375 148.367188 C 231.171875 146.925781 230.664062 145.507812 230.085938 144.117188 C 229.507812 142.722656 228.863281 141.363281 228.152344 140.035156 C 227.441406 138.707031 226.664062 137.417969 225.828125 136.164062 C 224.988281 134.914062 224.09375 133.707031 223.136719 132.542969 C 222.179688 131.378906 221.167969 130.261719 220.101562 129.199219 C 219.035156 128.132812 217.921875 127.125 216.753906 126.167969 C 215.589844 125.214844 214.378906 124.316406 213.128906 123.480469 C 211.875 122.644531 210.582031 121.871094 209.253906 121.164062 C 207.925781 120.453125 206.5625 119.8125 205.171875 119.234375 C 203.777344 118.660156 202.363281 118.152344 200.917969 117.714844 C 199.476562 117.28125 198.015625 116.914062 196.539062 116.621094 C 195.0625 116.328125 193.574219 116.109375 192.074219 115.960938 C 190.574219 115.816406 189.070312 115.742188 187.5625 115.742188 C 186.058594 115.742188 184.554688 115.816406 183.054688 115.964844 C 181.554688 116.113281 180.066406 116.335938 178.589844 116.632812 C 177.113281 116.925781 175.652344 117.292969 174.210938 117.730469 C 172.769531 118.167969 171.351562 118.675781 169.960938 119.253906 C 168.570312 119.832031 167.210938 120.472656 165.878906 121.183594 C 164.550781 121.894531 163.261719 122.671875 162.007812 123.507812 C 160.757812 124.34375 159.546875 125.242188 158.382812 126.199219 C 157.21875 127.15625 156.105469 128.167969 155.039062 129.230469 C 153.976562 130.296875 152.964844 131.414062 152.011719 132.578125 C 151.054688 133.742188 150.160156 134.953125 149.320312 136.207031 C 148.484375 137.457031 147.710938 138.75 147.003906 140.078125 C 146.292969 141.40625 145.648438 142.769531 145.074219 144.160156 C 144.496094 145.550781 143.992188 146.96875 143.554688 148.410156 C 143.117188 149.855469 142.75 151.3125 142.457031 152.792969 C 142.164062 154.269531 141.945312 155.757812 141.796875 157.257812 C 141.648438 158.757812 141.578125 160.257812 141.578125 161.765625 C 141.578125 163.273438 141.652344 164.777344 141.800781 166.277344 C 141.949219 167.773438 142.167969 169.261719 142.464844 170.742188 C 142.757812 172.21875 143.125 173.679688 143.5625 175.121094 C 144 176.5625 144.507812 177.980469 145.082031 179.371094 C 145.660156 180.761719 146.304688 182.121094 147.015625 183.453125 C 147.722656 184.78125 148.5 186.070312 149.335938 187.324219 C 150.171875 188.574219 151.070312 189.785156 152.023438 190.949219 C 152.980469 192.113281 153.992188 193.226562 155.058594 194.292969 C 156.125 195.359375 157.238281 196.371094 158.402344 197.324219 C 159.566406 198.28125 160.777344 199.175781 162.03125 200.015625 C 163.28125 200.851562 164.574219 201.625 165.902344 202.335938 C 167.230469 203.042969 168.589844 203.6875 169.984375 204.265625 C 171.375 204.839844 172.792969 205.347656 174.234375 205.785156 C 175.675781 206.222656 177.136719 206.589844 178.613281 206.882812 C 180.089844 207.175781 181.578125 207.398438 183.078125 207.542969 C 184.578125 207.691406 186.082031 207.765625 187.589844 207.765625 Z M 187.589844 117.382812 C 189.019531 117.386719 190.449219 117.457031 191.875 117.597656 C 193.300781 117.738281 194.714844 117.949219 196.121094 118.226562 C 197.527344 118.503906 198.914062 118.851562 200.285156 119.261719 C 201.660156 119.675781 203.007812 120.152344 204.332031 120.695312 C 205.660156 121.238281 206.953125 121.84375 208.222656 122.511719 C 209.488281 123.183594 210.71875 123.910156 211.917969 124.699219 C 213.113281 125.484375 214.269531 126.328125 215.382812 127.230469 C 216.496094 128.128906 217.566406 129.082031 218.589844 130.082031 C 219.609375 131.085938 220.582031 132.136719 221.503906 133.234375 C 222.425781 134.332031 223.289062 135.472656 224.101562 136.652344 C 224.910156 137.832031 225.660156 139.050781 226.355469 140.304688 C 227.046875 141.558594 227.675781 142.84375 228.246094 144.160156 C 228.8125 145.472656 229.316406 146.8125 229.753906 148.175781 C 230.191406 149.539062 230.566406 150.921875 230.867188 152.320312 C 231.171875 153.722656 231.410156 155.132812 231.578125 156.554688 C 231.746094 157.976562 231.84375 159.40625 231.875 160.835938 L 186.730469 160.835938 L 186.730469 206.039062 C 185.292969 206.007812 183.859375 205.902344 182.429688 205.730469 C 181 205.558594 179.582031 205.316406 178.175781 205.003906 C 176.769531 204.695312 175.382812 204.316406 174.015625 203.871094 C 172.644531 203.421875 171.300781 202.910156 169.984375 202.335938 C 168.664062 201.757812 167.378906 201.117188 166.121094 200.414062 C 164.863281 199.714844 163.644531 198.953125 162.460938 198.128906 C 161.28125 197.308594 160.140625 196.433594 159.042969 195.5 C 157.945312 194.566406 156.898438 193.585938 155.894531 192.550781 C 154.894531 191.515625 153.945312 190.433594 153.050781 189.308594 C 152.15625 188.179688 151.316406 187.011719 150.535156 185.804688 C 149.75 184.597656 149.03125 183.351562 148.367188 182.074219 C 147.707031 180.792969 147.109375 179.488281 146.578125 178.148438 C 146.042969 176.8125 145.574219 175.453125 145.175781 174.070312 C 144.773438 172.6875 144.441406 171.289062 144.175781 169.875 C 143.910156 168.457031 143.714844 167.035156 143.589844 165.601562 C 143.464844 164.164062 143.40625 162.730469 143.421875 161.289062 C 143.433594 159.851562 143.519531 158.414062 143.671875 156.984375 C 143.828125 155.550781 144.050781 154.132812 144.34375 152.722656 C 144.632812 151.3125 144.992188 149.917969 145.421875 148.546875 C 145.847656 147.171875 146.34375 145.820312 146.902344 144.492188 C 147.460938 143.167969 148.082031 141.871094 148.769531 140.605469 C 149.457031 139.339844 150.199219 138.109375 151.007812 136.917969 C 151.8125 135.722656 152.671875 134.570312 153.589844 133.460938 C 154.507812 132.351562 155.476562 131.289062 156.496094 130.277344 C 157.519531 129.261719 158.585938 128.296875 159.703125 127.386719 C 160.816406 126.476562 161.972656 125.621094 163.171875 124.824219 C 164.367188 124.027344 165.601562 123.289062 166.871094 122.609375 C 168.140625 121.929688 169.441406 121.316406 170.773438 120.765625 C 172.101562 120.214844 173.457031 119.726562 174.832031 119.308594 C 176.210938 118.890625 177.605469 118.539062 179.015625 118.253906 C 180.425781 117.96875 181.847656 117.753906 183.28125 117.609375 C 184.710938 117.464844 186.148438 117.390625 187.589844 117.382812 Z M 187.589844 117.382812 " fill-opacity="1" fill-rule="nonzero"/></g><path fill="#ffffff" d="M 165.015625 230.347656 C 166.523438 230.347656 168.027344 230.269531 169.527344 230.121094 C 171.027344 229.96875 172.515625 229.746094 173.992188 229.449219 C 175.46875 229.152344 176.929688 228.785156 178.371094 228.347656 C 179.8125 227.90625 181.230469 227.398438 182.621094 226.820312 C 184.011719 226.242188 185.371094 225.597656 186.699219 224.882812 C 188.03125 224.171875 189.320312 223.398438 190.570312 222.558594 C 191.824219 221.71875 193.03125 220.820312 194.195312 219.863281 C 195.359375 218.910156 196.476562 217.898438 197.539062 216.832031 C 198.605469 215.765625 199.617188 214.648438 200.570312 213.484375 C 201.527344 212.316406 202.421875 211.109375 203.257812 209.855469 C 204.097656 208.601562 204.871094 207.308594 205.578125 205.980469 C 206.289062 204.652344 206.933594 203.289062 207.511719 201.898438 C 208.085938 200.503906 208.59375 199.089844 209.03125 197.644531 C 209.46875 196.203125 209.835938 194.746094 210.128906 193.265625 C 210.421875 191.789062 210.644531 190.300781 210.792969 188.800781 C 210.941406 187.300781 211.015625 185.796875 211.015625 184.289062 L 211.015625 183.433594 L 165.875 183.433594 L 165.875 138.253906 L 165.015625 138.253906 C 163.523438 138.277344 162.035156 138.375 160.554688 138.542969 C 159.070312 138.710938 157.597656 138.953125 156.136719 139.265625 C 154.679688 139.578125 153.238281 139.957031 151.8125 140.410156 C 150.390625 140.863281 148.992188 141.382812 147.621094 141.972656 C 146.25 142.558594 144.910156 143.210938 143.601562 143.929688 C 142.289062 144.648438 141.019531 145.429688 139.789062 146.269531 C 138.554688 147.113281 137.367188 148.011719 136.21875 148.96875 C 135.074219 149.929688 133.976562 150.9375 132.929688 152.003906 C 131.882812 153.066406 130.890625 154.179688 129.953125 155.339844 C 129.011719 156.5 128.132812 157.703125 127.3125 158.949219 C 126.488281 160.199219 125.730469 161.480469 125.03125 162.800781 C 124.335938 164.121094 123.703125 165.472656 123.136719 166.855469 C 122.574219 168.234375 122.074219 169.640625 121.644531 171.070312 C 121.21875 172.5 120.859375 173.949219 120.570312 175.414062 C 120.28125 176.878906 120.066406 178.351562 119.921875 179.839844 C 119.777344 181.324219 119.703125 182.816406 119.703125 184.308594 C 119.703125 185.800781 119.777344 187.289062 119.921875 188.777344 C 120.066406 190.261719 120.28125 191.738281 120.570312 193.203125 C 120.859375 194.667969 121.21875 196.113281 121.644531 197.542969 C 122.074219 198.972656 122.574219 200.378906 123.136719 201.761719 C 123.703125 203.144531 124.335938 204.492188 125.03125 205.8125 C 125.730469 207.132812 126.488281 208.417969 127.3125 209.664062 C 128.132812 210.910156 129.011719 212.113281 129.953125 213.273438 C 130.890625 214.433594 131.882812 215.546875 132.929688 216.613281 C 133.976562 217.675781 135.074219 218.6875 136.21875 219.644531 C 137.367188 220.601562 138.554688 221.5 139.789062 222.34375 C 141.019531 223.1875 142.289062 223.964844 143.601562 224.683594 C 144.910156 225.402344 146.25 226.054688 147.621094 226.644531 C 148.992188 227.230469 150.390625 227.753906 151.8125 228.203125 C 153.238281 228.65625 154.679688 229.039062 156.136719 229.351562 C 157.597656 229.664062 159.070312 229.902344 160.554688 230.070312 C 162.035156 230.242188 163.523438 230.335938 165.015625 230.359375 Z M 164.148438 139.96875 L 164.148438 185.144531 L 209.289062 185.144531 C 209.261719 186.585938 209.164062 188.015625 208.992188 189.445312 C 208.824219 190.875 208.585938 192.289062 208.28125 193.695312 C 207.972656 195.101562 207.597656 196.488281 207.15625 197.855469 C 206.714844 199.222656 206.207031 200.566406 205.632812 201.886719 C 205.0625 203.207031 204.425781 204.492188 203.726562 205.75 C 203.027344 207.007812 202.269531 208.226562 201.453125 209.410156 C 200.636719 210.59375 199.765625 211.734375 198.835938 212.832031 C 197.90625 213.933594 196.925781 214.984375 195.898438 215.984375 C 194.867188 216.988281 193.789062 217.9375 192.664062 218.835938 C 191.542969 219.734375 190.378906 220.574219 189.171875 221.359375 C 187.96875 222.144531 186.726562 222.867188 185.449219 223.53125 C 184.175781 224.195312 182.871094 224.796875 181.535156 225.332031 C 180.203125 225.871094 178.84375 226.339844 177.464844 226.742188 C 176.085938 227.148438 174.6875 227.484375 173.273438 227.753906 C 171.863281 228.019531 170.441406 228.21875 169.007812 228.351562 C 167.574219 228.480469 166.140625 228.539062 164.703125 228.527344 C 163.265625 228.519531 161.828125 228.4375 160.398438 228.289062 C 158.96875 228.140625 157.550781 227.921875 156.140625 227.632812 C 154.730469 227.34375 153.339844 226.988281 151.964844 226.5625 C 150.589844 226.140625 149.242188 225.652344 147.914062 225.097656 C 146.589844 224.539062 145.292969 223.921875 144.023438 223.242188 C 142.757812 222.558594 141.527344 221.816406 140.335938 221.015625 C 139.140625 220.214844 137.988281 219.355469 136.878906 218.441406 C 135.765625 217.53125 134.703125 216.5625 133.6875 215.546875 C 132.671875 214.53125 131.707031 213.464844 130.792969 212.355469 C 129.878906 211.242188 129.023438 210.089844 128.222656 208.894531 C 127.421875 207.699219 126.683594 206.46875 126 205.203125 C 125.320312 203.9375 124.703125 202.640625 124.148438 201.3125 C 123.59375 199.984375 123.105469 198.632812 122.683594 197.257812 C 122.261719 195.882812 121.90625 194.492188 121.621094 193.082031 C 121.332031 191.675781 121.113281 190.253906 120.964844 188.824219 C 120.816406 187.394531 120.738281 185.960938 120.730469 184.523438 C 120.71875 183.082031 120.78125 181.648438 120.914062 180.214844 C 121.042969 178.785156 121.242188 177.363281 121.511719 175.949219 C 121.78125 174.535156 122.121094 173.140625 122.523438 171.761719 C 122.929688 170.378906 123.402344 169.023438 123.9375 167.691406 C 124.476562 166.355469 125.078125 165.050781 125.742188 163.777344 C 126.40625 162.5 127.132812 161.261719 127.917969 160.054688 C 128.703125 158.851562 129.546875 157.6875 130.445312 156.566406 C 131.34375 155.441406 132.292969 154.367188 133.296875 153.335938 C 134.300781 152.308594 135.351562 151.328125 136.453125 150.402344 C 137.550781 149.472656 138.691406 148.601562 139.875 147.785156 C 141.0625 146.96875 142.28125 146.210938 143.539062 145.515625 C 144.796875 144.816406 146.085938 144.183594 147.40625 143.609375 C 148.722656 143.039062 150.070312 142.53125 151.4375 142.089844 C 152.804688 141.652344 154.195312 141.277344 155.597656 140.972656 C 157.003906 140.664062 158.421875 140.429688 159.847656 140.261719 C 161.277344 140.09375 162.710938 139.996094 164.148438 139.96875 Z M 164.148438 139.96875 " fill-opacity="1" fill-rule="nonzero"/><g clip-path="url(#7dada0deab)"><path fill="#ffffff" d="M 209.300781 185.144531 L 209.300781 230.347656 L 210.160156 230.347656 C 211.667969 230.351562 213.171875 230.277344 214.675781 230.132812 C 216.175781 229.984375 217.667969 229.765625 219.148438 229.472656 C 220.628906 229.179688 222.089844 228.816406 223.535156 228.378906 C 224.980469 227.941406 226.398438 227.4375 227.792969 226.859375 C 229.1875 226.285156 230.550781 225.640625 231.882812 224.929688 C 233.214844 224.222656 234.507812 223.449219 235.761719 222.609375 C 237.015625 221.773438 238.230469 220.875 239.394531 219.921875 C 240.5625 218.964844 241.679688 217.953125 242.75 216.886719 C 243.816406 215.820312 244.828125 214.707031 245.789062 213.539062 C 246.746094 212.375 247.644531 211.164062 248.484375 209.910156 C 249.324219 208.65625 250.097656 207.363281 250.8125 206.035156 C 251.523438 204.703125 252.167969 203.34375 252.746094 201.949219 C 253.328125 200.554688 253.835938 199.136719 254.273438 197.695312 C 254.714844 196.25 255.082031 194.789062 255.375 193.308594 C 255.671875 191.828125 255.894531 190.339844 256.042969 188.835938 C 256.191406 187.335938 256.265625 185.832031 256.269531 184.320312 C 256.269531 182.8125 256.195312 181.308594 256.050781 179.804688 C 255.902344 178.304688 255.683594 176.8125 255.386719 175.332031 C 255.09375 173.851562 254.730469 172.390625 254.292969 170.945312 C 253.855469 169.503906 253.347656 168.082031 252.773438 166.6875 C 252.195312 165.292969 251.550781 163.933594 250.84375 162.601562 C 250.132812 161.269531 249.355469 159.976562 248.519531 158.722656 C 247.683594 157.464844 246.785156 156.253906 245.828125 155.089844 C 244.871094 153.921875 243.859375 152.804688 242.792969 151.738281 C 241.726562 150.667969 240.613281 149.65625 239.445312 148.699219 C 238.28125 147.742188 237.070312 146.84375 235.816406 146.003906 C 234.5625 145.164062 233.269531 144.390625 231.9375 143.679688 C 230.609375 142.964844 229.246094 142.320312 227.851562 141.742188 C 226.460938 141.164062 225.039062 140.65625 223.597656 140.21875 C 222.152344 139.78125 220.691406 139.414062 219.210938 139.117188 C 217.730469 138.824219 216.242188 138.601562 214.738281 138.453125 C 213.238281 138.304688 211.734375 138.230469 210.222656 138.230469 C 208.714844 138.230469 207.210938 138.300781 205.707031 138.449219 C 204.207031 138.597656 202.714844 138.816406 201.234375 139.113281 C 199.757812 139.40625 198.292969 139.773438 196.851562 140.210938 C 195.40625 140.648438 193.988281 141.152344 192.59375 141.730469 C 191.199219 142.308594 189.835938 142.953125 188.503906 143.664062 C 187.175781 144.375 185.882812 145.148438 184.625 145.988281 C 183.371094 146.824219 182.160156 147.722656 180.996094 148.679688 C 179.828125 149.636719 178.710938 150.648438 177.644531 151.714844 C 176.578125 152.78125 175.566406 153.898438 174.609375 155.0625 C 173.648438 156.230469 172.753906 157.441406 171.914062 158.695312 C 171.074219 159.949219 170.300781 161.242188 169.589844 162.574219 C 168.878906 163.902344 168.234375 165.265625 167.65625 166.660156 C 167.078125 168.054688 166.570312 169.472656 166.132812 170.917969 C 165.695312 172.359375 165.328125 173.820312 165.035156 175.300781 C 164.738281 176.78125 164.519531 178.273438 164.371094 179.773438 C 164.222656 181.273438 164.148438 182.78125 164.148438 184.289062 L 164.148438 185.144531 Z M 210.160156 139.957031 C 211.609375 139.941406 213.058594 140 214.507812 140.128906 C 215.953125 140.257812 217.386719 140.457031 218.816406 140.726562 C 220.242188 140.996094 221.652344 141.335938 223.042969 141.742188 C 224.4375 142.152344 225.808594 142.628906 227.152344 143.171875 C 228.5 143.714844 229.816406 144.320312 231.101562 144.992188 C 232.390625 145.664062 233.640625 146.398438 234.855469 147.195312 C 236.070312 147.988281 237.242188 148.84375 238.375 149.753906 C 239.503906 150.664062 240.585938 151.625 241.625 152.644531 C 242.660156 153.660156 243.644531 154.726562 244.574219 155.839844 C 245.507812 156.953125 246.382812 158.109375 247.199219 159.308594 C 248.019531 160.507812 248.777344 161.742188 249.472656 163.015625 C 250.167969 164.289062 250.800781 165.59375 251.371094 166.929688 C 251.9375 168.265625 252.4375 169.628906 252.875 171.011719 C 253.308594 172.398438 253.675781 173.800781 253.972656 175.222656 C 254.269531 176.644531 254.496094 178.074219 254.652344 179.519531 C 254.808594 180.960938 254.890625 182.410156 254.90625 183.859375 C 254.921875 185.3125 254.863281 186.761719 254.734375 188.207031 C 254.605469 189.652344 254.40625 191.089844 254.136719 192.515625 C 253.871094 193.941406 253.53125 195.351562 253.121094 196.746094 C 252.714844 198.140625 252.238281 199.507812 251.695312 200.855469 C 251.15625 202.203125 250.546875 203.519531 249.875 204.804688 C 249.203125 206.09375 248.472656 207.34375 247.675781 208.558594 C 246.882812 209.773438 246.027344 210.945312 245.121094 212.078125 C 244.210938 213.210938 243.246094 214.292969 242.230469 215.328125 C 241.214844 216.367188 240.148438 217.351562 239.035156 218.28125 C 237.921875 219.214844 236.765625 220.089844 235.566406 220.910156 C 234.367188 221.726562 233.132812 222.484375 231.859375 223.179688 C 230.585938 223.878906 229.28125 224.511719 227.945312 225.082031 C 226.609375 225.648438 225.25 226.152344 223.863281 226.585938 C 222.480469 227.019531 221.078125 227.386719 219.65625 227.683594 C 218.234375 227.984375 216.800781 228.210938 215.359375 228.367188 C 213.914062 228.523438 212.46875 228.609375 211.015625 228.625 L 211.015625 183.433594 L 165.875 183.433594 C 165.902344 182 166 180.570312 166.167969 179.148438 C 166.335938 177.726562 166.570312 176.3125 166.875 174.914062 C 167.179688 173.511719 167.550781 172.128906 167.988281 170.765625 C 168.425781 169.402344 168.929688 168.0625 169.496094 166.746094 C 170.0625 165.429688 170.695312 164.144531 171.386719 162.890625 C 172.078125 161.636719 172.828125 160.417969 173.640625 159.234375 C 174.449219 158.054688 175.316406 156.914062 176.234375 155.816406 C 177.15625 154.71875 178.128906 153.667969 179.152344 152.664062 C 180.171875 151.660156 181.242188 150.707031 182.355469 149.808594 C 183.472656 148.90625 184.628906 148.0625 185.824219 147.273438 C 187.019531 146.484375 188.253906 145.757812 189.519531 145.089844 C 190.785156 144.417969 192.082031 143.8125 193.410156 143.269531 C 194.734375 142.726562 196.085938 142.25 197.457031 141.835938 C 198.828125 141.421875 200.21875 141.078125 201.625 140.800781 C 203.03125 140.519531 204.445312 140.3125 205.871094 140.171875 C 207.296875 140.03125 208.726562 139.957031 210.160156 139.957031 Z M 210.160156 139.957031 " fill-opacity="1" fill-rule="nonzero"/></g></svg>